<svg width="58" height="58" viewBox="0 0 58 58" fill="none" xmlns="http://www.w3.org/2000/svg">
<rect width="57.2554" height="57.2554" fill="#F6F1EB"/>
<path fill-rule="evenodd" clip-rule="evenodd" d="M31.2393 18.4967C31.3271 17.9209 31.4417 17.3477 31.4971 16.7689C31.5784 15.9245 31.6088 15.0755 31.6752 14.23C31.7736 12.9644 31.8616 11.697 31.9983 10.4352C32.1046 9.45316 32.2503 8.47349 32.4318 7.50234C32.5243 7.01002 32.6969 6.52291 33.0604 6.13865C33.3943 5.78632 33.5543 5.75038 33.9571 6.0216C34.4866 6.37795 34.7833 6.8925 34.9165 7.51227C35.0646 8.20369 35.2006 8.89132 35.2318 9.60402C35.272 10.5099 35.3954 11.4115 35.4617 12.3167C35.5154 13.0413 35.4981 13.7729 35.583 14.4931C35.7249 15.6993 35.7972 16.9062 35.7787 18.1195C35.7746 18.3622 35.781 18.6059 35.8001 18.8476C35.8811 19.8535 35.9743 20.858 36.0533 21.8639C36.1296 22.8483 36.1852 23.8346 36.2723 24.8183C36.2844 24.9569 36.4054 25.0978 36.5034 25.2146C37.27 26.1295 37.5284 27.2224 37.3244 28.3383C37.1822 29.1132 36.7932 29.8703 36.3912 30.5651C35.7846 31.6147 35.0694 32.6027 34.4017 33.6178C33.9552 34.2969 33.4956 34.9848 33.3712 35.7994C33.1163 37.4686 33.2202 39.1456 33.3878 40.8158C33.4668 41.598 33.6182 42.3729 33.7233 43.1532C33.9259 44.6512 34.1359 46.1492 34.3037 47.6521C34.3475 48.0404 34.3694 48.5167 34.1856 48.8252C33.8589 49.3729 33.3933 49.8378 32.7856 50.1409C32.1364 50.4651 31.4624 50.6042 30.7443 50.6921C29.1602 50.8867 27.5757 50.812 25.9902 50.8274C25.9104 50.8286 25.8278 50.8096 25.7503 50.7877C24.6575 50.4758 23.5519 50.2015 22.4786 49.8352C21.488 49.4975 21.5555 49.3183 21.6045 48.3764C21.6069 48.336 21.6224 48.2967 21.6309 48.2575C21.9598 46.737 22.2988 45.2185 22.6155 43.6956C22.9646 42.013 23.2806 40.3263 23.215 38.5921C23.19 37.9326 23.0809 37.3085 22.7779 36.7202C22.3433 35.8741 21.8273 35.0574 21.5001 34.1721C21.0667 32.9999 20.7545 31.7798 20.4463 30.5663C20.3084 30.0231 20.2925 29.4464 20.2495 28.8826C20.1669 27.797 20.0804 26.7105 20.0397 25.6225C20.001 24.5726 19.9801 23.5194 20.0274 22.4707C20.0495 21.9812 20.0385 21.5118 19.9717 21.0273C19.8876 20.4095 19.8666 19.78 19.8643 19.1557C19.8638 18.9538 19.9627 18.7126 20.0959 18.5568C20.5443 18.0316 21.1485 17.7611 21.8088 17.5702C22.2793 17.4343 22.6346 17.6967 23.0364 17.8053C23.1115 17.8256 23.1838 17.8552 23.2825 17.8892C24.4533 16.8566 25.709 16.9013 26.9604 17.6655C27.1137 17.5589 27.2172 17.4941 27.3125 17.4196C27.8946 16.9639 28.5363 16.805 29.2582 17.0171C29.6272 17.1259 29.9939 17.2463 30.3681 17.3333C30.7835 17.4295 30.9664 17.7237 31.0814 18.0855C31.1226 18.2146 31.134 18.3529 31.1585 18.4872C31.1854 18.4901 31.2122 18.4934 31.2393 18.4967ZM28.4277 26.8552C27.5512 27.3877 26.9123 28.1342 26.234 28.859C25.5413 29.5994 25.2427 30.5391 24.7234 31.3724C24.5077 30.6393 24.8378 30.0252 25.1783 29.4577C25.5283 28.8744 25.9981 28.3622 26.453 27.7708C26.3305 27.7538 26.2261 27.7301 26.121 27.7259C25.3632 27.6932 24.7771 27.3688 24.488 26.662C24.3472 26.3182 24.1323 26.273 23.8246 26.2846C23.4789 26.2976 23.1325 26.2872 22.787 26.2856C21.8903 26.2813 21.2336 25.8403 20.7737 25.117C20.6453 24.9157 20.6149 24.6147 20.6358 24.3676C20.6689 23.9675 20.5859 23.6116 20.3833 23.1754C20.3833 24.0481 20.3512 24.8332 20.3905 25.615C20.4504 26.7833 20.5379 27.9517 20.6575 29.1153C20.7357 29.8763 20.8634 30.6348 21.0203 31.3837C21.1566 32.0354 21.3154 32.6906 21.5529 33.3109C21.8849 34.1759 22.199 35.0742 22.6992 35.8434C23.6976 37.3781 23.836 39.0409 23.5735 40.7443C23.2164 43.0581 22.7339 45.3528 22.2957 47.6536C22.2277 48.0106 22.0898 48.3537 22.0163 48.7094C21.9212 49.17 21.9966 49.3398 22.4001 49.4611C23.4684 49.7817 24.5424 50.0828 25.6193 50.3727C25.85 50.4346 26.103 50.4351 26.3448 50.4304C27.5645 50.4041 28.7862 50.3994 30.0029 50.3239C30.8484 50.2717 31.6897 50.1691 32.465 49.738C33.0005 49.4396 33.3952 49.0206 33.76 48.5621C33.8596 48.4363 33.8879 48.2178 33.8753 48.048C33.8173 47.2428 33.7474 46.4386 33.6556 45.6384C33.5272 44.5155 33.3743 43.3958 33.2331 42.275C33.1146 41.3341 32.9434 40.396 32.894 39.4516C32.8374 38.3622 32.8636 37.2662 32.8987 36.1747C32.9432 34.8337 33.6874 33.7796 34.4098 32.7216C34.878 32.0359 35.3245 31.3357 35.7955 30.6521C36.3086 29.9079 36.6368 29.0803 36.9007 28.2295C36.9932 27.9313 36.9573 27.5941 36.9789 27.2747C36.9801 27.2555 36.9678 27.2361 36.9632 27.2165C36.5747 25.2688 36.6422 25.5159 34.916 24.2808C33.5947 23.335 32.1769 22.5336 30.7039 21.8365C29.9998 21.5031 29.271 21.2208 28.4788 21.2834C27.9778 21.3231 27.4704 21.426 26.9932 21.5828C26.3574 21.7913 25.7418 22.0663 25.1293 22.3373C24.0893 22.7975 23.0552 23.2714 22.0247 23.7526C21.7881 23.863 21.5565 24.0035 21.3565 24.1709C20.905 24.5492 20.9095 24.933 21.3194 25.3671C21.6174 25.6823 22.0049 25.8384 22.408 25.8538C23.6658 25.9018 24.9329 25.9734 26.1526 25.5556C26.4774 25.4447 26.7911 25.2971 27.0978 25.1423C27.4763 24.9514 27.5265 24.9488 27.7424 25.2697C27.9783 25.6211 28.1932 25.9879 28.4445 26.3281C29.3274 27.5258 30.3869 28.4542 31.975 28.5516C32.2239 28.5667 32.2232 28.5757 32.4101 28.9507C30.6428 29.0311 29.5395 27.9529 28.4277 26.8552ZM35.7922 24.4934C35.7982 24.2711 35.8238 24.0427 35.8072 23.8176C35.6866 22.2293 35.544 20.6421 35.4351 19.0531C35.3742 18.1671 35.3813 17.2768 35.3276 16.3905C35.2567 15.2226 35.1547 14.0566 35.0687 12.8894C35.0565 12.7282 35.0637 12.5653 35.0513 12.4042C34.9747 11.4402 34.9151 10.474 34.8088 9.51322C34.727 8.77356 34.6045 8.03651 34.4595 7.30631C34.4062 7.03934 34.2774 6.76268 34.1085 6.54939C33.7716 6.12447 33.2918 6.19682 33.0547 6.6759C32.7161 7.36022 32.6129 8.10744 32.5461 8.84852C32.4087 10.3754 32.334 11.9076 32.214 13.4359C32.1055 14.8218 31.9729 16.2058 31.8468 17.5901C31.8176 17.9117 31.7831 18.2338 31.7299 18.552C31.6473 19.0474 31.5872 19.553 31.2588 19.9701C31.2098 20.0318 31.1592 20.1051 31.1473 20.1794C31.0731 20.6331 31.0106 21.089 30.9488 21.5111C32.5604 22.5033 34.1449 23.4792 35.7922 24.4934ZM22.8666 22.8145C23.3419 22.5863 23.3412 22.527 23.268 22.011C23.1921 21.4742 23.1391 20.9318 23.1139 20.3903C23.0889 19.8452 23.1127 19.2976 23.1103 18.7511C23.108 18.1569 22.6669 17.7805 22.0905 17.9282C21.721 18.0228 21.3489 18.1633 21.0222 18.3567C20.5112 18.6589 20.2288 19.0718 20.2509 19.7438C20.2944 21.0916 20.682 22.3574 20.9447 23.6979C21.6518 23.374 22.2643 23.1042 22.8666 22.8145ZM30.5065 21.3771C30.589 20.8651 30.6927 20.4014 30.7317 19.9327C30.7742 19.4092 30.7645 18.8802 30.7645 18.3536C30.7652 17.8469 30.6768 17.7076 30.1879 17.5613C29.8208 17.4511 29.4399 17.365 29.0589 17.3248C28.1181 17.2259 27.2362 17.8672 27.0785 18.8039C26.9689 19.456 26.9551 20.1243 26.9054 20.7859C26.9 20.8568 26.9461 20.9313 26.9868 21.0635C28.1842 20.6348 29.3184 20.8777 30.5065 21.3771ZM26.461 21.2208C26.54 20.1063 26.6163 19.029 26.6998 17.8556C26.0407 17.4657 25.2879 17.3494 24.4823 17.7041C24.4454 17.7204 24.4126 17.745 24.3774 17.7663C23.3702 18.3737 23.5462 18.181 23.5533 19.1666C23.5597 20.0725 23.6137 20.9781 23.6567 21.8833C23.6646 22.0368 23.7236 22.1879 23.7702 22.3891C24.7374 21.9692 25.625 21.5835 26.461 21.2208ZM24.8014 26.3373C24.7702 26.7495 24.9685 27.0349 25.3421 27.1612C25.6215 27.2553 25.9337 27.3137 26.2268 27.2976C26.71 27.2711 26.9116 26.9529 26.8227 26.4693C26.7904 26.2948 26.759 26.12 26.7273 25.9474C26.0782 26.0784 25.4515 26.2054 24.8014 26.3373ZM28.1661 26.4509C27.9476 26.1264 27.7517 25.8358 27.5612 25.553C27.051 25.7887 27.0424 25.8528 27.3546 27.0335C27.6473 26.8235 27.8855 26.6526 28.1661 26.4509Z" fill="black"/>
</svg>
