<svg width="58" height="58" viewBox="0 0 58 58" fill="none" xmlns="http://www.w3.org/2000/svg">
<rect width="57.2554" height="57.2554" fill="#F6F1EB"/>
<path fill-rule="evenodd" clip-rule="evenodd" d="M30.6772 22.0903C30.7048 21.9822 30.743 21.8758 30.759 21.7659C30.8388 21.2093 30.9252 20.6531 30.9858 20.0943C31.1271 18.7863 31.321 17.4792 31.373 16.1671C31.4446 14.3815 31.5639 12.6066 31.9071 10.8512C32.0227 10.2594 32.161 9.66692 32.5413 9.17433C32.8857 8.72691 33.1371 8.69195 33.586 9.03654C34.0182 9.36841 34.3003 9.80902 34.3932 10.3477C34.5149 11.0528 34.6574 11.7576 34.7236 12.4686C34.861 13.933 34.9717 15.4003 35.0581 16.8688C35.1394 18.2637 35.1746 19.6614 35.2306 21.0577C35.2325 21.0967 35.2341 21.1355 35.2382 21.1743C35.3352 22.1759 35.4448 23.1758 35.5254 24.1785C35.5994 25.1056 35.6327 26.036 35.7083 26.9633C35.7203 27.1138 35.8363 27.2727 35.942 27.3967C36.7025 28.2915 36.9545 29.35 36.7261 30.4494C36.5754 31.1747 36.2225 31.8829 35.8429 32.5324C35.2538 33.5391 34.5845 34.5023 33.9141 35.4598C33.1632 36.5335 32.7759 37.6908 32.8 39.0088C32.8267 40.465 32.8381 41.9157 33.0753 43.3606C33.3043 44.756 33.4785 46.16 33.6549 47.5633C33.74 48.2355 33.7946 48.9129 33.8188 49.5891C33.8261 49.8011 33.7379 50.052 33.6106 50.2258C33.1012 50.9218 32.4239 51.416 31.582 51.6491C31.2082 51.7524 30.8107 51.7724 30.4252 51.8339C28.901 52.0773 27.3652 51.9713 25.8332 51.9878C25.7365 51.9883 25.6365 51.9701 25.543 51.9436C24.4682 51.638 23.3801 51.3711 22.3255 51.0088C21.508 50.7271 21.3903 50.538 21.5587 49.6247C21.8305 48.1567 22.2053 46.7084 22.5088 45.2459C22.8523 43.5919 23.1861 41.9364 23.1101 40.2305C23.0823 39.6194 22.9952 39.034 22.7043 38.4882C22.3932 37.9042 22.0847 37.3194 21.7731 36.7353C21.1622 35.5896 20.8812 34.3366 20.562 33.096C20.2459 31.867 20.2447 30.6017 20.1324 29.3498C20.0839 28.8091 20.0361 28.2672 20.0244 27.7254C20.0033 26.7361 20.0099 25.7459 20.0037 24.7564C20.0014 24.3342 20.0099 23.9115 19.9881 23.4904C19.9552 22.8532 19.8838 22.2176 19.8645 21.58C19.8594 21.4038 19.9403 21.1909 20.0531 21.0515C20.4184 20.6005 20.9216 20.3435 21.4613 20.134C21.9234 19.9547 22.3434 20.0386 22.7721 20.2116C22.7988 20.2225 22.8426 20.1921 22.9263 20.1658C22.8976 19.8312 22.8698 19.4857 22.8374 19.1406C22.7229 17.9232 22.5529 16.7078 22.5056 15.4879C22.4475 13.9934 22.4635 12.4942 22.5056 10.999C22.5235 10.3652 22.6526 9.72685 22.7971 9.10577C22.9166 8.59025 23.2489 8.35712 23.7022 8.33487C24.3639 8.30264 24.7182 8.48469 24.9385 9.0102C25.0435 9.25968 25.1219 9.5255 25.1703 9.79109C25.4137 11.1293 25.5938 12.4724 25.6515 13.836C25.6958 14.8807 25.8867 15.9188 25.9844 16.9621C26.1176 18.3929 26.2199 19.8264 26.3481 21.2572C26.3688 21.4894 26.4554 21.716 26.5119 21.9448C26.5638 21.94 26.6158 21.9357 26.6675 21.9309C26.6819 21.7119 26.7072 21.4926 26.709 21.2731C26.7166 20.437 26.6971 19.5999 26.7242 18.7643C26.7637 17.5419 26.8713 16.3213 26.8846 15.0991C26.9124 12.5528 26.8873 10.0063 27.0633 7.46318C27.1233 6.58923 27.4592 5.88416 28.2317 5.42516C28.7245 5.1321 29.1548 5.22449 29.4455 5.69802C29.5951 5.9425 29.7074 6.22239 29.7754 6.50092C30.2237 8.32261 30.3363 10.1824 30.3829 12.0479C30.4153 13.3103 30.4325 14.5729 30.462 15.8348C30.479 16.5535 30.5169 17.2715 30.5279 17.9902C30.5394 18.7461 30.5463 19.5027 30.5254 20.2582C30.5081 20.8665 30.462 21.4731 30.5369 22.0774C30.5846 22.0817 30.6311 22.086 30.6772 22.0903ZM27.2754 27.6854C26.4278 28.2228 25.5194 28.3678 24.6031 28.4273C23.8802 28.4743 23.1457 28.4854 22.4268 28.4137C21.6352 28.3344 21.0507 27.8639 20.6689 27.1779C20.5905 27.0364 20.5848 26.8401 20.5905 26.6707C20.6119 26.056 20.619 26.0562 20.3534 25.4134C20.3534 26.2472 20.3176 26.9915 20.3615 27.7311C20.4267 28.8318 20.5427 29.9298 20.6459 31.0278C20.7001 31.6067 20.7192 32.196 20.8497 32.7587C21.0776 33.7414 21.332 34.7239 21.6658 35.6752C21.9082 36.3665 22.2487 37.0361 22.6306 37.6651C23.2339 38.6585 23.5524 39.6902 23.5367 40.8629C23.5211 42.0358 23.3718 43.184 23.1507 44.3272C22.8564 45.8511 22.535 47.3692 22.2214 48.889C22.1706 49.1355 22.0867 49.3759 22.0431 49.6227C21.9923 49.9049 21.9691 50.1911 21.9339 50.4749C22.0454 50.5398 22.1058 50.5934 22.1763 50.614C23.2472 50.9275 24.3179 51.2421 25.3927 51.542C25.597 51.5987 25.8201 51.609 26.0342 51.6051C27.2515 51.5806 28.4718 51.5794 29.6867 51.502C30.5019 51.4505 31.3185 51.3565 32.0648 50.9332C32.5783 50.6424 33.0017 50.2615 33.297 49.7907C33.4608 49.5296 33.4477 49.1153 33.4091 48.7821C33.195 46.935 32.9758 45.0872 32.7051 43.2478C32.4859 41.7646 32.4108 40.2802 32.4046 38.7842C32.3981 37.4325 32.7848 36.2332 33.563 35.1295C34.2144 34.2058 34.8639 33.276 35.4356 32.3043C35.8177 31.6557 36.1228 30.9472 36.3542 30.2317C36.6825 29.2134 36.0927 27.7095 35.2171 27.0712C33.694 25.9618 32.0877 24.9877 30.3822 24.1755C29.6849 23.8432 28.9644 23.5674 28.1786 23.6248C27.7131 23.6591 27.2368 23.7445 26.7991 23.8988C26.0602 24.159 25.3431 24.4829 24.6242 24.7968C23.7624 25.1734 22.9038 25.5589 22.0527 25.9591C21.7724 26.0912 21.4942 26.2521 21.2594 26.4508C20.915 26.7416 20.9221 27.1318 21.215 27.4805C21.4976 27.8178 21.8871 27.9921 22.2983 28.0087C23.4736 28.0559 24.6587 28.131 25.8045 27.7667C26.1755 27.6487 26.5321 27.482 26.8844 27.3147C27.2272 27.1518 27.2899 27.1554 27.5006 27.4723C27.748 27.8439 27.9702 28.2346 28.2436 28.5864C29.097 29.6824 30.1104 30.5291 31.5995 30.6085C31.7426 30.6163 31.88 30.7302 32.0011 30.8635C31.5499 31.0719 31.1264 30.9731 30.711 30.8271C29.9553 30.5622 29.3182 30.1087 28.7518 29.5584C28.5568 29.3689 28.3914 29.1498 28.2078 28.9389C27.2945 29.4781 26.6806 30.2006 26.0257 30.8977C25.3571 31.6092 25.0566 32.5076 24.5684 33.3228C24.3926 32.9042 24.5321 32.5328 24.6651 32.1637C24.9353 31.4173 25.3978 30.7892 25.9605 30.2406C26.5588 29.6576 27.1922 29.1094 27.8494 28.5106C27.6846 28.2725 27.4884 27.991 27.2754 27.6854ZM26.4326 23.549C27.5513 23.0516 28.6574 23.1034 29.7442 23.5633C31.5032 24.3074 33.1256 25.2967 34.6845 26.3897C34.8286 26.4909 34.9717 26.5938 35.119 26.69C35.1461 26.7077 35.1918 26.6978 35.3065 26.7068C35.2667 26.1675 35.2325 25.6383 35.1863 25.1099C35.1291 24.455 35.0374 23.8023 35.0045 23.1463C34.9336 21.7119 34.9103 20.275 34.8286 18.841C34.764 17.7212 34.6314 16.6057 34.5464 15.4873C34.4982 14.8487 34.509 14.2056 34.4508 13.5682C34.3486 12.4513 34.2921 11.3247 33.9931 10.2362C33.9134 9.94636 33.7703 9.6449 33.572 9.4229C33.2581 9.07218 32.8287 9.15821 32.6314 9.57839C32.508 9.84126 32.3867 10.1193 32.3439 10.4022C32.201 11.3402 32.0836 12.282 31.977 13.2245C31.9078 13.8397 31.8743 14.4583 31.8251 15.0757C31.8132 15.2303 31.8005 15.3849 31.7934 15.5397C31.722 17.2422 31.6974 18.9484 31.3456 20.6279C31.262 21.025 31.2413 21.4343 31.1669 21.8338C31.1363 22.0013 31.0653 22.1727 30.9709 22.3157C30.8473 22.5034 30.6547 22.6249 30.4162 22.5429C30.186 22.4642 30.1238 22.2957 30.1254 22.0408C30.1368 20.1365 30.1398 18.2317 30.1173 16.3276C30.0978 14.6569 30.0845 12.9846 29.9909 11.317C29.8986 9.67146 29.8069 8.02093 29.4136 6.40536C29.2029 5.54275 28.9432 5.45263 28.2358 6.01378C27.8089 6.35292 27.5695 6.78331 27.5233 7.30519C27.45 8.1367 27.3813 8.97025 27.3652 9.80426C27.3271 11.7669 27.345 13.7312 27.2954 15.6936C27.2504 17.459 27.1493 19.2228 27.0629 20.9871C27.0468 21.3155 26.9629 21.6408 26.9418 21.9695C26.9289 22.1713 26.8917 22.3205 26.6585 22.3243C26.4474 22.328 26.2523 22.2626 26.2017 22.0367C26.1163 21.659 26.0333 21.2781 25.9922 20.8938C25.8307 19.3876 25.6806 17.8803 25.5366 16.3726C25.4088 15.0398 25.319 13.703 25.1662 12.373C25.0506 11.3713 24.8841 10.3734 24.6966 9.38203C24.5854 8.79296 24.5109 8.76141 24.1006 8.74484C23.6264 8.72577 23.3274 8.88218 23.2126 9.33732C23.0713 9.89937 22.9433 10.4803 22.9299 11.0557C22.893 12.7063 22.8877 14.3591 22.9276 16.0098C22.9509 16.9389 23.1036 17.8646 23.1689 18.7938C23.264 20.1494 23.3506 21.506 23.4049 22.8635C23.4285 23.465 23.4786 24.0536 23.642 24.6502C24.6164 24.2693 25.5407 23.9454 26.4326 23.549ZM22.7845 25.0876C23.1907 24.8938 23.2479 24.8225 23.1664 24.415C22.9865 23.5118 23.0301 22.602 23.0244 21.6924C23.0235 21.5176 23.0049 21.3423 23.0177 21.1691C23.0632 20.5535 22.5791 20.3256 21.9303 20.4402C21.647 20.4904 21.3614 20.6032 21.1105 20.7455C20.5607 21.0577 20.2052 21.4451 20.2434 22.1806C20.3098 23.4689 20.6629 24.6858 20.9195 25.9441C21.5817 25.6408 22.1876 25.3727 22.7845 25.0876Z" fill="black"/>
</svg>
