<svg width="58" height="58" viewBox="0 0 58 58" fill="none" xmlns="http://www.w3.org/2000/svg">
<rect width="57.2554" height="57.2554" fill="#F6F1EB"/>
<path fill-rule="evenodd" clip-rule="evenodd" d="M31.2402 22.2952C31.2777 22.1821 31.3349 22.0715 31.3499 21.9555C31.4133 21.4688 31.4205 20.9707 31.5294 20.4953C31.8434 19.127 31.8071 17.7266 31.9515 16.3434C32.0979 14.9413 32.1448 13.5287 32.3018 12.1283C32.3869 11.372 32.5807 10.6223 32.7878 9.88695C32.8733 9.58098 33.1064 9.30995 33.2993 9.04214C33.4597 8.81984 33.6703 8.8118 33.9246 8.938C34.5022 9.22489 34.8147 9.72879 34.968 10.3023C35.2721 11.4409 35.3461 12.6207 35.4546 13.7906C35.5144 14.4356 35.4933 15.0878 35.5413 15.7342C35.6245 16.867 35.7912 17.9969 35.816 19.1305C35.8546 20.8598 35.8887 22.5851 36.0903 24.3064C36.2038 25.2782 36.2241 26.2607 36.3091 27.2363C36.3222 27.3896 36.4344 27.5514 36.5388 27.6779C37.2746 28.5703 37.5259 29.6316 37.3261 30.7162C37.187 31.4691 36.8112 32.2047 36.4227 32.8796C35.8358 33.8998 35.1448 34.86 34.4988 35.8469C34.0671 36.5069 33.6262 37.1759 33.5043 37.9676C33.2577 39.5703 33.3623 41.1815 33.5089 42.7861C33.5807 43.5661 33.7411 44.3376 33.8455 45.1152C34.0388 46.5525 34.2379 47.9885 34.396 49.4294C34.4399 49.8267 34.4724 50.3103 34.2905 50.6278C33.9841 51.163 33.5269 51.6124 32.9393 51.9068C32.3113 52.222 31.66 52.3572 30.9662 52.4425C29.435 52.6319 27.9028 52.5593 26.3704 52.574C26.293 52.5753 26.2134 52.5579 26.1385 52.536C25.0643 52.2255 23.982 51.9404 22.9197 51.5928C22.1572 51.3432 22.0436 51.105 22.1167 50.3106C22.1243 50.2329 22.1381 50.1547 22.1549 50.0779C22.4721 48.6002 22.799 47.1235 23.1061 45.6435C23.4503 43.9888 23.753 42.3298 23.6852 40.6243C23.6615 40.0239 23.5634 39.4515 23.291 38.917C23.0231 38.3922 22.742 37.874 22.4616 37.3552C21.7227 35.9888 21.3763 34.4918 21.0411 32.9969C20.9043 32.3879 20.8715 31.7532 20.82 31.1279C20.7345 30.0926 20.646 29.0569 20.6087 28.0193C20.5719 26.999 20.6014 25.9763 20.5951 24.9549C20.5922 24.5262 20.58 24.0973 20.557 23.6688C20.5234 23.0428 20.4561 22.418 20.4473 21.7918C20.4443 21.5955 20.5379 21.3594 20.6653 21.2077C21.0972 20.695 21.6813 20.433 22.3186 20.2447C22.7742 20.1102 23.1169 20.3631 23.5054 20.4672C23.5788 20.4865 23.6487 20.5182 23.748 20.5546C24.8238 19.5976 26.001 19.578 27.2033 20.2691C27.2557 20.1835 27.2911 20.1525 27.2923 20.1201C27.3523 18.7449 27.4313 17.3703 27.4608 15.9942C27.5063 13.8692 27.5097 11.7435 27.5472 9.61845C27.5605 8.87203 27.621 8.12675 27.6621 7.38056C27.7054 6.58425 28.0366 5.94611 28.7019 5.48956C29.2628 5.10382 29.7559 5.19738 30.0837 5.78703C30.2159 6.02426 30.3134 6.29001 30.3763 6.55506C30.812 8.38077 30.9058 10.2472 30.9777 12.1115C31.0292 13.429 31.014 14.7492 31.0343 16.0678C31.0568 17.542 31.092 19.0157 31.1083 20.49C31.1152 21.0858 31.072 21.6831 31.117 22.2768C31.1577 22.2837 31.1991 22.2895 31.2402 22.2952ZM26.5829 31.244C25.9265 31.9594 25.6328 32.8539 25.1693 33.7727C24.9374 33.2826 25.0978 32.9178 25.2167 32.5654C25.4801 31.7863 25.973 31.15 26.5242 30.5539C26.6263 30.4431 26.7176 30.322 26.8619 30.1473C26.6987 30.1316 26.6097 30.1185 26.5208 30.1155C25.7916 30.0893 25.2174 29.7905 24.9263 29.1047C24.7935 28.7916 24.6165 28.6942 24.3006 28.7126C23.9473 28.7333 23.5923 28.7218 23.2381 28.7151C22.3724 28.6988 21.7432 28.2599 21.3089 27.5503C21.1889 27.3533 21.1761 27.0604 21.1935 26.817C21.22 26.4308 21.1441 26.088 20.9551 25.7283C20.9551 26.5436 20.9246 27.3223 20.9625 28.0976C21.0167 29.2139 21.1085 30.3296 21.2108 31.4426C21.2687 32.0661 21.3452 32.692 21.4763 33.3033C21.636 34.0516 21.8521 34.789 22.0629 35.5258C22.3457 36.5152 22.8213 37.4193 23.3379 38.303C23.7287 38.9708 24.0549 39.6744 24.0905 40.4514C24.136 41.4512 24.1528 42.4544 23.9569 43.4495C23.5622 45.4527 23.191 47.461 22.8009 49.4653C22.7298 49.8313 22.593 50.1839 22.5215 50.5492C22.4399 50.9662 22.5147 51.1289 22.8753 51.2374C23.9073 51.5501 24.9463 51.84 25.9861 52.1273C26.1727 52.1781 26.375 52.1919 26.5691 52.1887C27.8074 52.1634 29.0476 52.1634 30.2826 52.0825C31.0779 52.0303 31.8733 51.9381 32.6076 51.5266C33.1248 51.2361 33.5117 50.8361 33.8671 50.3922C33.9648 50.2699 34.0034 50.0609 33.9924 49.897C33.9397 49.1149 33.8846 48.3315 33.7869 47.5536C33.5779 45.8794 33.2917 44.213 33.134 42.5346C33.0147 41.2657 33.0227 39.9827 33.0151 38.7062C33.0076 37.5239 33.4754 36.4938 34.1303 35.5306C34.7935 34.5555 35.4742 33.5877 36.0652 32.5688C36.4461 31.9123 36.8427 31.1916 36.9404 30.4606C37.0909 29.3247 36.9369 28.1726 35.8838 27.3993C34.3275 26.2551 32.694 25.2365 30.9485 24.4028C30.2494 24.0692 29.5279 23.7904 28.7412 23.8529C28.2759 23.8901 27.8003 23.9789 27.3621 24.1356C26.6233 24.4002 25.9059 24.7283 25.1868 25.0462C24.3243 25.4273 23.4643 25.8152 22.614 26.2234C22.3172 26.3664 22.0275 26.5501 21.782 26.7685C21.4931 27.0252 21.4963 27.356 21.7209 27.6708C22.0055 28.0687 22.4245 28.2765 22.8811 28.294C24.0765 28.3399 25.2824 28.4192 26.4456 28.0287C26.7787 27.917 27.1042 27.7747 27.4169 27.6154C27.8279 27.4066 27.8295 27.3977 28.1037 27.8126C28.341 28.1721 28.5626 28.5448 28.8269 28.8841C29.6865 29.987 30.6961 30.8548 32.1894 30.9199C32.3706 30.9279 32.3706 30.9403 32.5777 31.2629C32.1253 31.3868 31.7159 31.2971 31.314 31.1555C30.5384 30.881 29.8906 30.4059 29.3035 29.8401C29.1079 29.6509 28.9173 29.4565 28.7217 29.2618C27.8633 29.8089 27.2364 30.5318 26.5829 31.244ZM28.1601 7.05666C28.0486 7.57159 28.0081 8.10859 27.9978 8.63686C27.9511 10.9389 27.9412 13.2416 27.8893 15.5432C27.8617 16.7604 27.7755 17.9762 27.7132 19.1925C27.6723 19.9966 27.6474 20.8026 27.5734 21.604C27.5359 22.0106 27.3962 22.4065 27.3208 22.8108C27.275 23.0536 27.264 23.3028 27.2336 23.5911C27.4033 23.5805 27.5003 23.5922 27.5856 23.5662C28.538 23.2791 29.4635 23.4175 30.3465 23.8014C32.1204 24.572 33.7648 25.5738 35.3321 26.7046C35.4719 26.8053 35.619 26.8965 35.8452 27.0471C35.8452 26.7082 35.8613 26.445 35.8424 26.1843C35.8008 25.6175 35.7425 25.0522 35.6896 24.486C35.6406 23.9591 35.5896 23.4324 35.5376 22.9058C35.53 22.8281 35.5064 22.7508 35.5029 22.6729C35.4671 21.9083 35.4399 21.1433 35.3995 20.3789C35.3153 18.7916 35.2236 17.2041 35.1365 15.6167C35.1002 14.9512 35.0891 14.2832 35.0257 13.62C34.9158 12.4699 34.8535 11.3113 34.5547 10.1879C34.5043 10.0005 34.416 9.8196 34.3197 9.65017C34.1726 9.39018 33.9377 9.26972 33.6351 9.26466C33.317 9.25938 33.2609 9.51891 33.168 9.72305C32.8112 10.5058 32.7271 11.3561 32.6531 12.1924C32.5269 13.6181 32.4931 15.0521 32.3837 16.4795C32.2816 17.8073 32.143 19.1328 31.9963 20.4566C31.9317 21.0389 31.8232 21.6187 31.6991 22.1915C31.6605 22.3676 31.5352 22.5621 31.3908 22.666C31.2752 22.7488 31.0538 22.7564 30.9101 22.7069C30.749 22.6508 30.6998 22.4936 30.6998 22.2791C30.7005 20.1576 30.6784 18.0355 30.652 15.914C30.6357 14.5961 30.6131 13.2779 30.5711 11.9607C30.5127 10.1325 30.4382 8.30422 30.0019 6.51529C29.9297 6.2192 29.8095 5.93484 29.7173 5.66082C28.9056 5.76243 28.3325 6.26035 28.1601 7.05666ZM23.3112 25.3611C23.8112 25.1221 23.807 25.0772 23.7321 24.5455C23.6576 24.0237 23.6114 23.4959 23.5882 22.9692C23.5645 22.4389 23.587 21.9067 23.5843 21.3757C23.5818 20.8288 23.1703 20.453 22.6404 20.5822C22.2455 20.6785 21.8537 20.8428 21.5036 21.05C21.0211 21.3359 20.7823 21.7536 20.8237 22.3727C20.8889 23.3453 21.2544 25.4821 21.5648 26.1646C22.1712 25.8869 22.7448 25.6319 23.3112 25.3611ZM26.8235 23.7908C26.8996 22.7212 26.9759 21.6562 27.058 20.5159C26.3527 20.1332 25.5891 19.998 24.7884 20.4474C24.7197 20.4858 24.6569 20.5357 24.5854 20.5658C24.1293 20.7578 23.9631 21.0847 23.9976 21.586C24.0629 22.5233 24.0709 23.4642 24.1107 24.4032C24.1169 24.557 24.165 24.709 24.2066 24.9338C25.1341 24.5285 25.9914 24.154 26.8235 23.7908ZM25.2213 28.7682C25.3339 29.5576 26.3199 30.0027 26.9546 29.5746C27.1769 29.425 27.2628 29.2349 27.1999 28.973C27.1548 28.7854 27.1212 28.5956 27.078 28.3878C26.4311 28.5206 25.8252 28.6445 25.2213 28.7682ZM27.9003 28.0165C27.3911 28.214 27.3911 28.214 27.667 29.4245C27.9378 29.2464 28.1808 29.0864 28.484 28.8875C28.2548 28.5455 28.0739 28.2763 27.9003 28.0165Z" fill="black"/>
</svg>
